<svg width="146" height="23" viewBox="0 0 146 23" fill="none" xmlns="http://www.w3.org/2000/svg">
<path d="M11.5 2.0709C14.5727 2.0709 14.9365 2.08437 16.1449 2.13828C17.268 2.1877 17.8744 2.37637 18.2787 2.53359C18.8133 2.74023 19.1996 2.9918 19.5994 3.3916C20.0037 3.7959 20.2508 4.17773 20.4574 4.71231C20.6146 5.1166 20.8033 5.72754 20.8527 6.84609C20.9066 8.05898 20.9201 8.42285 20.9201 11.491C20.9201 14.5637 20.9066 14.9275 20.8527 16.1359C20.8033 17.259 20.6146 17.8654 20.4574 18.2697C20.2508 18.8043 19.9992 19.1906 19.5994 19.5904C19.1951 19.9947 18.8133 20.2418 18.2787 20.4484C17.8744 20.6057 17.2635 20.7943 16.1449 20.8438C14.932 20.8977 14.5682 20.9111 11.5 20.9111C8.42734 20.9111 8.06348 20.8977 6.85508 20.8438C5.73203 20.7943 5.12559 20.6057 4.72129 20.4484C4.18672 20.2418 3.80039 19.9902 3.40059 19.5904C2.99629 19.1861 2.74922 18.8043 2.54258 18.2697C2.38535 17.8654 2.19668 17.2545 2.14727 16.1359C2.09336 14.923 2.07988 14.5592 2.07988 11.491C2.07988 8.41836 2.09336 8.05449 2.14727 6.84609C2.19668 5.72305 2.38535 5.1166 2.54258 4.71231C2.74922 4.17773 3.00078 3.79141 3.40059 3.3916C3.80488 2.9873 4.18672 2.74023 4.72129 2.53359C5.12559 2.37637 5.73652 2.1877 6.85508 2.13828C8.06348 2.08437 8.42734 2.0709 11.5 2.0709ZM11.5 0C8.37793 0 7.98711 0.0134766 6.76074 0.0673828C5.53887 0.121289 4.69883 0.318945 3.97109 0.601953C3.21191 0.898437 2.56953 1.28926 1.93164 1.93164C1.28926 2.56953 0.898438 3.21191 0.601953 3.9666C0.318945 4.69883 0.121289 5.53437 0.0673828 6.75625C0.0134766 7.98711 0 8.37793 0 11.5C0 14.6221 0.0134766 15.0129 0.0673828 16.2393C0.121289 17.4611 0.318945 18.3012 0.601953 19.0289C0.898438 19.7881 1.28926 20.4305 1.93164 21.0684C2.56953 21.7063 3.21191 22.1016 3.9666 22.3936C4.69883 22.6766 5.53437 22.8742 6.75625 22.9281C7.98262 22.982 8.37344 22.9955 11.4955 22.9955C14.6176 22.9955 15.0084 22.982 16.2348 22.9281C17.4566 22.8742 18.2967 22.6766 19.0244 22.3936C19.7791 22.1016 20.4215 21.7063 21.0594 21.0684C21.6973 20.4305 22.0926 19.7881 22.3846 19.0334C22.6676 18.3012 22.8652 17.4656 22.9191 16.2438C22.973 15.0174 22.9865 14.6266 22.9865 11.5045C22.9865 8.38242 22.973 7.9916 22.9191 6.76523C22.8652 5.54336 22.6676 4.70332 22.3846 3.97559C22.1016 3.21191 21.7107 2.56953 21.0684 1.93164C20.4305 1.29375 19.7881 0.898438 19.0334 0.606445C18.3012 0.323437 17.4656 0.125781 16.2438 0.071875C15.0129 0.0134766 14.6221 0 11.5 0Z" fill="white"/>
<path d="M11.5 5.59277C8.23867 5.59277 5.59277 8.23867 5.59277 11.5C5.59277 14.7613 8.23867 17.4072 11.5 17.4072C14.7613 17.4072 17.4072 14.7613 17.4072 11.5C17.4072 8.23867 14.7613 5.59277 11.5 5.59277ZM11.5 15.3318C9.38418 15.3318 7.66816 13.6158 7.66816 11.5C7.66816 9.38418 9.38418 7.66816 11.5 7.66816C13.6158 7.66816 15.3318 9.38418 15.3318 11.5C15.3318 13.6158 13.6158 15.3318 11.5 15.3318Z" fill="white"/>
<path d="M19.0199 5.35908C19.0199 6.12276 18.4 6.73819 17.6408 6.73819C16.8771 6.73819 16.2617 6.11826 16.2617 5.35908C16.2617 4.59541 16.8816 3.97998 17.6408 3.97998C18.4 3.97998 19.0199 4.5999 19.0199 5.35908Z" fill="white"/>
<path d="M62.2975 0H42.698C41.7592 0 41 0.741211 41 1.65762V21.3379C41 22.2543 41.7592 23 42.698 23H62.2975C63.2363 23 64 22.2543 64 21.3424V1.65762C64 0.741211 63.2363 0 62.2975 0ZM47.8236 19.5994H44.4096V8.62051H47.8236V19.5994ZM46.1166 7.12461C45.0205 7.12461 44.1355 6.23965 44.1355 5.14805C44.1355 4.05645 45.0205 3.17148 46.1166 3.17148C47.2082 3.17148 48.0932 4.05645 48.0932 5.14805C48.0932 6.23516 47.2082 7.12461 46.1166 7.12461ZM60.5994 19.5994H57.1898V14.2627C57.1898 12.9914 57.1674 11.3518 55.4154 11.3518C53.641 11.3518 53.3715 12.7398 53.3715 14.1729V19.5994H49.9664V8.62051H53.2367V10.1209H53.2816C53.7354 9.2584 54.8494 8.34648 56.507 8.34648C59.9615 8.34648 60.5994 10.6195 60.5994 13.5754V19.5994V19.5994Z" fill="white"/>
<path d="M104.771 6.9001C104.771 6.9001 104.546 5.31436 103.854 4.61807C102.979 3.70166 101.999 3.69717 101.55 3.64326C98.3336 3.40967 93.5045 3.40967 93.5045 3.40967H93.4955C93.4955 3.40967 88.6664 3.40967 85.45 3.64326C85.0008 3.69717 84.0215 3.70166 83.1455 4.61807C82.4537 5.31436 82.2336 6.9001 82.2336 6.9001C82.2336 6.9001 82 8.76436 82 10.6241V12.3671C82 14.2269 82.2291 16.0911 82.2291 16.0911C82.2291 16.0911 82.4537 17.6769 83.141 18.3731C84.017 19.2896 85.167 19.2581 85.6791 19.3569C87.5209 19.5321 93.5 19.586 93.5 19.586C93.5 19.586 98.3336 19.5771 101.55 19.348C101.999 19.294 102.979 19.2896 103.854 18.3731C104.546 17.6769 104.771 16.0911 104.771 16.0911C104.771 16.0911 105 14.2313 105 12.3671V10.6241C105 8.76436 104.771 6.9001 104.771 6.9001ZM91.1236 14.4829V8.01865L97.3363 11.262L91.1236 14.4829Z" fill="white"/>
<path fill-rule="evenodd" clip-rule="evenodd" d="M146 11.5C146 17.8513 140.851 23 134.5 23C128.149 23 123 17.8513 123 11.5C123 5.14873 128.149 0 134.5 0C140.851 0 146 5.14873 146 11.5ZM134.912 8.48981C133.794 8.95505 131.558 9.91798 128.206 11.3786C127.661 11.5951 127.376 11.8069 127.35 12.014C127.306 12.3639 127.744 12.5017 128.341 12.6894C128.422 12.7149 128.507 12.7414 128.593 12.7694C129.18 12.9603 129.97 13.1836 130.38 13.1924C130.753 13.2005 131.169 13.0469 131.628 12.7318C134.76 10.6174 136.377 9.54865 136.478 9.52561C136.55 9.50936 136.649 9.48892 136.716 9.54869C136.784 9.60845 136.777 9.72164 136.77 9.752C136.726 9.93709 135.006 11.5365 134.116 12.3642C133.838 12.6222 133.641 12.8053 133.601 12.8471C133.511 12.9407 133.419 13.0293 133.331 13.1144C132.785 13.6403 132.376 14.0346 133.353 14.6786C133.823 14.9881 134.199 15.244 134.574 15.4993C134.983 15.7781 135.392 16.0562 135.92 16.4025C136.054 16.4908 136.183 16.5824 136.308 16.6717C136.785 17.0114 137.213 17.3165 137.742 17.2679C138.049 17.2396 138.366 16.9506 138.528 16.0888C138.909 14.0522 139.657 9.63935 139.83 7.82093C139.846 7.66162 139.827 7.45772 139.811 7.36822C139.796 7.27871 139.764 7.15119 139.648 7.05678C139.51 6.94498 139.297 6.9214 139.202 6.92308C138.769 6.9307 138.106 7.16145 134.912 8.48981Z" fill="white"/>
</svg>
